<mxfile host="app.diagrams.net" modified="2023-11-03T08:21:08.706Z" agent="Mozilla/5.0 (Windows NT 10.0; Win64; x64) AppleWebKit/537.36 (KHTML, like Gecko) Chrome/118.0.0.0 Safari/537.36" etag="UA1ifBSV2MMIflQ9kWtC" version="22.0.8" type="github">
  <diagram name="Page-1" id="52a04d89-c75d-2922-d76d-85b35f80e030">
    <mxGraphModel dx="910" dy="578" grid="1" gridSize="10" guides="1" tooltips="1" connect="1" arrows="1" fold="1" page="1" pageScale="1" pageWidth="1100" pageHeight="850" background="none" math="0" shadow="0">
      <root>
        <mxCell id="0" />
        <mxCell id="1" parent="0" />
        <mxCell id="qG-ZjcZ9h4WWeBsuojXU-11" style="edgeStyle=orthogonalEdgeStyle;rounded=0;orthogonalLoop=1;jettySize=auto;html=1;exitX=0.5;exitY=1;exitDx=0;exitDy=0;entryX=0.5;entryY=0;entryDx=0;entryDy=0;" edge="1" parent="1" source="qG-ZjcZ9h4WWeBsuojXU-1" target="qG-ZjcZ9h4WWeBsuojXU-6">
          <mxGeometry relative="1" as="geometry" />
        </mxCell>
        <mxCell id="qG-ZjcZ9h4WWeBsuojXU-1" value="Формирование заказа" style="swimlane;html=1;fontStyle=0;childLayout=stackLayout;horizontal=1;startSize=26;fillColor=#e0e0e0;horizontalStack=0;resizeParent=1;resizeLast=0;collapsible=1;marginBottom=0;swimlaneFillColor=#ffffff;align=center;rounded=1;shadow=0;comic=0;labelBackgroundColor=none;strokeWidth=1;fontFamily=Verdana;fontSize=12" vertex="1" parent="1">
          <mxGeometry x="240" y="78" width="200" height="70" as="geometry" />
        </mxCell>
        <mxCell id="qG-ZjcZ9h4WWeBsuojXU-37" value="do Формирование списка услуг&lt;br&gt;exit Создание договора" style="text;html=1;strokeColor=none;fillColor=none;spacingLeft=4;spacingRight=4;whiteSpace=wrap;overflow=hidden;rotatable=0;points=[[0,0.5],[1,0.5]];portConstraint=eastwest;align=center;" vertex="1" parent="qG-ZjcZ9h4WWeBsuojXU-1">
          <mxGeometry y="26" width="200" height="44" as="geometry" />
        </mxCell>
        <mxCell id="qG-ZjcZ9h4WWeBsuojXU-25" style="edgeStyle=orthogonalEdgeStyle;rounded=0;orthogonalLoop=1;jettySize=auto;html=1;exitX=0;exitY=0.5;exitDx=0;exitDy=0;entryX=0;entryY=0.5;entryDx=0;entryDy=0;" edge="1" parent="1" source="qG-ZjcZ9h4WWeBsuojXU-4" target="qG-ZjcZ9h4WWeBsuojXU-6">
          <mxGeometry relative="1" as="geometry">
            <mxPoint x="220" y="370" as="targetPoint" />
          </mxGeometry>
        </mxCell>
        <mxCell id="qG-ZjcZ9h4WWeBsuojXU-32" style="edgeStyle=orthogonalEdgeStyle;rounded=0;orthogonalLoop=1;jettySize=auto;html=1;exitX=0.5;exitY=1;exitDx=0;exitDy=0;entryX=0.5;entryY=0;entryDx=0;entryDy=0;" edge="1" parent="1" source="qG-ZjcZ9h4WWeBsuojXU-4" target="qG-ZjcZ9h4WWeBsuojXU-30">
          <mxGeometry relative="1" as="geometry" />
        </mxCell>
        <mxCell id="qG-ZjcZ9h4WWeBsuojXU-4" value="Проверка заказа" style="swimlane;html=1;fontStyle=0;childLayout=stackLayout;horizontal=1;startSize=26;fillColor=#e0e0e0;horizontalStack=0;resizeParent=1;resizeLast=0;collapsible=1;marginBottom=0;swimlaneFillColor=#ffffff;align=center;rounded=1;shadow=0;comic=0;labelBackgroundColor=none;strokeWidth=1;fontFamily=Verdana;fontSize=12" vertex="1" parent="1">
          <mxGeometry x="240" y="336" width="200" height="70" as="geometry" />
        </mxCell>
        <mxCell id="qG-ZjcZ9h4WWeBsuojXU-33" value="do Проверка выполнения заказа&lt;br&gt;exit Оплата заказа" style="text;html=1;strokeColor=none;fillColor=none;spacingLeft=4;spacingRight=4;whiteSpace=wrap;overflow=hidden;rotatable=0;points=[[0,0.5],[1,0.5]];portConstraint=eastwest;align=center;" vertex="1" parent="qG-ZjcZ9h4WWeBsuojXU-4">
          <mxGeometry y="26" width="200" height="44" as="geometry" />
        </mxCell>
        <mxCell id="qG-ZjcZ9h4WWeBsuojXU-13" style="edgeStyle=orthogonalEdgeStyle;rounded=0;orthogonalLoop=1;jettySize=auto;html=1;exitX=0.5;exitY=1;exitDx=0;exitDy=0;entryX=0.5;entryY=0;entryDx=0;entryDy=0;" edge="1" parent="1" source="qG-ZjcZ9h4WWeBsuojXU-6" target="qG-ZjcZ9h4WWeBsuojXU-4">
          <mxGeometry relative="1" as="geometry" />
        </mxCell>
        <mxCell id="qG-ZjcZ9h4WWeBsuojXU-6" value="Выполнение заказа" style="swimlane;html=1;fontStyle=0;childLayout=stackLayout;horizontal=1;startSize=26;fillColor=#e0e0e0;horizontalStack=0;resizeParent=1;resizeLast=0;collapsible=1;marginBottom=0;swimlaneFillColor=#ffffff;align=center;rounded=1;shadow=0;comic=0;labelBackgroundColor=none;strokeWidth=1;fontFamily=Verdana;fontSize=12" vertex="1" parent="1">
          <mxGeometry x="240" y="194" width="200" height="100" as="geometry" />
        </mxCell>
        <mxCell id="qG-ZjcZ9h4WWeBsuojXU-27" value="entry Подготовка инструментов и материалов&lt;br&gt;do Выполнение услуги&lt;br&gt;exit Уведомление о готовности" style="text;html=1;strokeColor=none;fillColor=none;spacingLeft=4;spacingRight=4;whiteSpace=wrap;overflow=hidden;rotatable=0;points=[[0,0.5],[1,0.5]];portConstraint=eastwest;align=center;" vertex="1" parent="qG-ZjcZ9h4WWeBsuojXU-6">
          <mxGeometry y="26" width="200" height="74" as="geometry" />
        </mxCell>
        <mxCell id="qG-ZjcZ9h4WWeBsuojXU-22" value="Договор заключен" style="text;html=1;strokeColor=none;fillColor=none;align=center;verticalAlign=middle;whiteSpace=wrap;rounded=0;" vertex="1" parent="1">
          <mxGeometry x="355" y="157" width="60" height="30" as="geometry" />
        </mxCell>
        <mxCell id="qG-ZjcZ9h4WWeBsuojXU-23" value="Услуга выполнена" style="text;html=1;strokeColor=none;fillColor=none;align=center;verticalAlign=middle;whiteSpace=wrap;rounded=0;" vertex="1" parent="1">
          <mxGeometry x="355" y="300" width="60" height="30" as="geometry" />
        </mxCell>
        <mxCell id="qG-ZjcZ9h4WWeBsuojXU-28" value="Услуга&amp;nbsp; не выполнена" style="text;html=1;strokeColor=none;fillColor=none;align=center;verticalAlign=middle;whiteSpace=wrap;rounded=0;" vertex="1" parent="1">
          <mxGeometry x="150" y="294" width="60" height="30" as="geometry" />
        </mxCell>
        <mxCell id="qG-ZjcZ9h4WWeBsuojXU-30" value="" style="ellipse;whiteSpace=wrap;html=1;rounded=1;shadow=0;comic=0;labelBackgroundColor=none;strokeWidth=1;fontFamily=Verdana;fontSize=12;align=center;" vertex="1" parent="1">
          <mxGeometry x="325" y="435" width="30" height="30" as="geometry" />
        </mxCell>
        <mxCell id="qG-ZjcZ9h4WWeBsuojXU-31" value="" style="ellipse;whiteSpace=wrap;html=1;rounded=1;shadow=0;comic=0;labelBackgroundColor=none;strokeWidth=1;fontFamily=Verdana;fontSize=12;align=center;fillColor=#000000;" vertex="1" parent="1">
          <mxGeometry x="330" y="440" width="20" height="20" as="geometry" />
        </mxCell>
        <mxCell id="qG-ZjcZ9h4WWeBsuojXU-35" style="edgeStyle=orthogonalEdgeStyle;rounded=0;orthogonalLoop=1;jettySize=auto;html=1;exitX=1;exitY=0.5;exitDx=0;exitDy=0;entryX=0;entryY=0.5;entryDx=0;entryDy=0;" edge="1" parent="1" source="qG-ZjcZ9h4WWeBsuojXU-34" target="qG-ZjcZ9h4WWeBsuojXU-1">
          <mxGeometry relative="1" as="geometry" />
        </mxCell>
        <mxCell id="qG-ZjcZ9h4WWeBsuojXU-34" value="" style="ellipse;whiteSpace=wrap;html=1;rounded=1;shadow=0;comic=0;labelBackgroundColor=none;strokeWidth=1;fontFamily=Verdana;fontSize=12;align=center;fillColor=#000000;" vertex="1" parent="1">
          <mxGeometry x="165" y="98" width="30" height="30" as="geometry" />
        </mxCell>
      </root>
    </mxGraphModel>
  </diagram>
</mxfile>
